<?xml version="1.0" encoding="UTF-8" standalone="no"?>
<svg
   xmlns:dc="http://purl.org/dc/elements/1.1/"
   xmlns:cc="http://creativecommons.org/ns#"
   xmlns:rdf="http://www.w3.org/1999/02/22-rdf-syntax-ns#"
   xmlns:svg="http://www.w3.org/2000/svg"
   xmlns="http://www.w3.org/2000/svg"
   xmlns:sodipodi="http://sodipodi.sourceforge.net/DTD/sodipodi-0.dtd"
   xmlns:inkscape="http://www.inkscape.org/namespaces/inkscape"
   width="32"
   height="32"
   viewBox="0 0 8.4666667 8.4666667"
   version="1.1"
   id="svg1408"
   inkscape:version="1.0.2 (e86c870879, 2021-01-15, custom)"
   sodipodi:docname="cummunism-logo.svg"
   inkscape:export-filename="/home/erin/Pictures/cummunism-logo.png"
   inkscape:export-xdpi="300.00003"
   inkscape:export-ydpi="300.00003">
  <title
     id="title1973">Cummunism</title>
  <defs
     id="defs1402">
    <clipPath
       clipPathUnits="userSpaceOnUse"
       id="clipPath2156">
      <g
         aria-label="A
p
o
t
h
e
c
a
r
y"
         id="g2178"
         style="font-style:normal;font-weight:normal;font-size:1.41111px;line-height:0;font-family:sans-serif;fill:#000000;fill-opacity:1;stroke:none;stroke-width:0.264583"
         transform="translate(-0.05846772)">
        <path
           d="m 7.3544731,0.26470669 -0.141593,0.3839547 H 7.4965829 Z M 7.2955622,0.1618709 h 0.1183386 l 0.294038,0.77152675 H 7.5994186 L 7.5291389,0.73547753 H 7.1813576 l -0.07028,0.19792012 H 7.0010074 Z"
           style="font-size:1.05833px;line-height:0.75;stroke-width:0.264583"
           id="path2158" />
        <path
           d="m 7.1844582,1.6403291 v 0.306957 H 7.0888571 V 1.1483709 h 0.095601 v 0.08785 q 0.029972,-0.051676 0.075447,-0.076481 0.045992,-0.025321 0.1095537,-0.025321 0.1054196,0 0.1710485,0.083716 0.066146,0.083716 0.066146,0.2201409 0,0.1364254 -0.066146,0.220141 -0.065629,0.083716 -0.1710485,0.083716 -0.063562,0 -0.1095537,-0.024805 -0.045475,-0.025321 -0.075447,-0.076999 z M 7.5079516,1.4382748 q 0,-0.1049028 -0.043408,-0.1643305 -0.042891,-0.059944 -0.1183387,-0.059944 -0.075447,0 -0.1188554,0.059944 -0.042891,0.059428 -0.042891,0.1643305 0,0.1049029 0.042891,0.1648473 0.043408,0.059428 0.1188554,0.059428 0.075447,0 0.1183387,-0.059428 0.043408,-0.059944 0.043408,-0.1648473 z"
           style="font-size:1.05833px;line-height:0.75;stroke-width:0.264583"
           id="path2160" />
        <path
           d="m 7.3167494,2.0087809 q -0.076481,0 -0.1209224,0.059944 -0.044442,0.059428 -0.044442,0.163297 0,0.1038693 0.043925,0.1638138 0.044442,0.059428 0.1214392,0.059428 0.075964,0 0.1204057,-0.059944 0.044442,-0.059944 0.044442,-0.163297 0,-0.1028358 -0.044442,-0.1627803 -0.044442,-0.060461 -0.1204055,-0.060461 z m 0,-0.080615 q 0.1240231,0 0.1948196,0.080615 0.070797,0.080615 0.070797,0.2232415 0,0.1421097 -0.070797,0.2232415 -0.070797,0.080615 -0.1948196,0.080615 -0.1245398,0 -0.1953363,-0.080615 -0.07028,-0.081132 -0.07028,-0.2232415 0,-0.1426265 0.07028,-0.2232415 0.070797,-0.080615 0.1953363,-0.080615 z"
           style="font-size:1.05833px;line-height:0.75;stroke-width:0.264583"
           id="path2162" />
        <path
           d="M 7.1865252,2.5715355 V 2.735866 H 7.3823783 V 2.809763 H 7.1865252 v 0.3141917 q 0,0.070797 0.01912,0.09095 0.019637,0.020154 0.079065,0.020154 h 0.097668 v 0.079582 h -0.097668 q -0.1100704,0 -0.1519282,-0.040824 Q 7.0909241,3.232475 7.0909241,3.1239548 V 2.8097631 H 7.0211612 V 2.735866 h 0.069763 V 2.5715355 Z"
           style="font-size:1.05833px;line-height:0.75;stroke-width:0.264583"
           id="path2164" />
        <path
           d="m 7.5735805,3.7590562 v 0.3493316 h -0.095084 v -0.346231 q 0,-0.082165 -0.032039,-0.1229895 -0.032039,-0.040824 -0.096118,-0.040824 -0.076998,0 -0.1214392,0.049092 -0.044442,0.049092 -0.044442,0.1338415 v 0.327111 H 7.0888571 V 3.304305 h 0.095601 v 0.3152253 q 0.034106,-0.052193 0.080098,-0.078031 0.046509,-0.025838 0.1069699,-0.025838 0.099735,0 0.1508947,0.062011 0.05116,0.061495 0.05116,0.1813839 z"
           style="font-size:1.05833px;line-height:0.75;stroke-width:0.264583"
           id="path2166" />
        <path
           d="m 7.5875331,4.5889772 v 0.046509 H 7.1503518 q 0.0062,0.098185 0.058911,0.1498612 0.053227,0.051159 0.1477941,0.051159 0.054777,0 0.1059364,-0.013436 0.051676,-0.013436 0.102319,-0.040307 v 0.089917 q -0.05116,0.021704 -0.1049028,0.033073 -0.053743,0.011369 -0.109037,0.011369 -0.1384924,0 -0.2196241,-0.080615 -0.080615,-0.080615 -0.080615,-0.2180739 0,-0.1421097 0.076481,-0.2253085 0.076998,-0.083716 0.2072218,-0.083716 0.1167884,0 0.1844843,0.075447 0.068213,0.074931 0.068213,0.2041212 z M 7.4924488,4.561072 q -0.00103,-0.078031 -0.043925,-0.1245398 -0.042374,-0.046509 -0.1126543,-0.046509 -0.079581,0 -0.1276403,0.044958 -0.047542,0.044958 -0.054777,0.1266068 z"
           style="font-size:1.05833px;line-height:0.75;stroke-width:0.264583"
           id="path2168" />
        <path
           d="m 7.5089852,5.1393295 v 0.088883 q -0.040307,-0.022221 -0.081132,-0.033073 -0.040307,-0.011369 -0.081649,-0.011369 -0.0925,0 -0.14366,0.058911 -0.05116,0.058394 -0.05116,0.1643306 0,0.1059363 0.05116,0.1648473 0.051159,0.058394 0.14366,0.058394 0.041341,0 0.081649,-0.010852 0.040824,-0.011369 0.081132,-0.033589 v 0.08785 q -0.039791,0.018604 -0.082682,0.027905 -0.042375,0.0093 -0.090434,0.0093 -0.1307409,0 -0.2077386,-0.082165 -0.076998,-0.082165 -0.076998,-0.2216912 0,-0.141593 0.077514,-0.2227248 0.078031,-0.081132 0.213423,-0.081132 0.043925,0 0.085783,0.0093 0.041858,0.00879 0.081132,0.026872 z"
           style="font-size:1.05833px;line-height:0.75;stroke-width:0.264583"
           id="path2170" />
        <path
           d="m 7.3555066,6.198693 q -0.1152381,0 -0.1596796,0.026355 -0.044442,0.026355 -0.044442,0.089917 0,0.050643 0.033073,0.080615 0.033589,0.029456 0.09095,0.029456 0.079065,0 0.1266069,-0.05581 0.048059,-0.056327 0.048059,-0.1493444 V 6.198693 Z m 0.189652,-0.039274 v 0.3302114 h -0.095084 v -0.08785 q -0.032556,0.05271 -0.081132,0.078031 -0.048576,0.024805 -0.1188555,0.024805 -0.088883,0 -0.1415929,-0.049609 -0.052193,-0.050126 -0.052193,-0.1338416 0,-0.097668 0.065112,-0.1472774 0.065629,-0.049609 0.1953363,-0.049609 h 0.1333248 v -0.0093 q 0,-0.065629 -0.043408,-0.1012855 -0.042891,-0.036173 -0.1209224,-0.036173 -0.049609,0 -0.096635,0.011885 -0.047025,0.011886 -0.090433,0.035657 v -0.08785 q 0.052193,-0.020154 0.1012855,-0.029972 0.049092,-0.010335 0.095601,-0.010335 0.1255733,0 0.1875848,0.065112 0.062012,0.065112 0.062012,0.1974034 z"
           style="font-size:1.05833px;line-height:0.75;stroke-width:0.264583"
           id="path2172" />
        <path
           d="m 7.4278534,6.7934869 q -0.01602,-0.0093 -0.03514,-0.013436 -0.018603,-0.00465 -0.041341,-0.00465 -0.080615,0 -0.124023,0.05271 -0.042891,0.052193 -0.042891,0.150378 v 0.30489 H 7.0888571 V 6.7046038 h 0.095601 v 0.089917 q 0.029972,-0.05271 0.078031,-0.078031 0.048059,-0.025838 0.1167884,-0.025838 0.00982,0 0.021704,0.00155 0.011885,0.00103 0.026355,0.00362 z"
           style="font-size:1.05833px;line-height:0.75;stroke-width:0.264583"
           id="path2174" />
        <path
           d="m 7.3332858,8.1308689 q -0.040307,0.1033525 -0.078548,0.134875 -0.03824,0.031523 -0.102319,0.031523 H 7.0764548 V 8.217685 h 0.05581 q 0.039274,0 0.060978,-0.018603 0.021704,-0.018603 0.048059,-0.08785 L 7.2583552,8.0678238 7.0242617,7.4983513 h 0.1007688 l 0.1808669,0.4526841 0.180867,-0.4526841 h 0.1007687 z"
           style="font-size:1.05833px;line-height:0.75;stroke-width:0.264583"
           id="path2176" />
      </g>
    </clipPath>
  </defs>
  <sodipodi:namedview
     id="base"
     pagecolor="#ffffff"
     bordercolor="#666666"
     borderopacity="1.0"
     inkscape:pageopacity="0.0"
     inkscape:pageshadow="2"
     inkscape:zoom="14.365528"
     inkscape:cx="36.806011"
     inkscape:cy="22.42302"
     inkscape:document-units="px"
     inkscape:current-layer="layer1"
     inkscape:document-rotation="0"
     showgrid="false"
     inkscape:window-width="1900"
     inkscape:window-height="986"
     inkscape:window-x="10"
     inkscape:window-y="10"
     inkscape:window-maximized="1"
     units="px"
     inkscape:pagecheckerboard="true"
     inkscape:showpageshadow="false"
     showguides="false" />
  <metadata
     id="metadata1405">
    <rdf:RDF>
      <cc:Work
         rdf:about="">
        <dc:format>image/svg+xml</dc:format>
        <dc:type
           rdf:resource="http://purl.org/dc/dcmitype/StillImage" />
        <dc:title>Cummunism</dc:title>
        <dc:creator>
          <cc:Agent>
            <dc:title>Erin Nova</dc:title>
          </cc:Agent>
        </dc:creator>
        <dc:rights>
          <cc:Agent>
            <dc:title></dc:title>
          </cc:Agent>
        </dc:rights>
        <dc:subject>
          <rdf:Bag />
        </dc:subject>
        <cc:license
           rdf:resource="https://git.pixie.town/thufie/CNPL" />
      </cc:Work>
    </rdf:RDF>
  </metadata>
  <g
     inkscape:label="Layer 1"
     inkscape:groupmode="layer"
     id="layer1">
    <path
       style="fill:none;stroke:#f4363f;stroke-width:0.264583px;stroke-linecap:butt;stroke-linejoin:miter;stroke-opacity:1"
       d="M -0.01710652,8.8799317 4.6135149,0.46597424 4.9611968,8.8851467"
       id="path1975"
       sodipodi:nodetypes="ccc" />
    <path
       style="fill:none;stroke:#f4363f;stroke-width:0.265;stroke-linecap:square;stroke-linejoin:round;stroke-miterlimit:4;stroke-dasharray:none;stroke-dashoffset:0;stroke-opacity:1"
       d="M 1.2853941,4.1709116 H 5.385042"
       id="path1977" />
    <g
       id="g2154"
       clip-path="url(#clipPath2156)">
      <rect
         style="opacity:1;fill:#ffabf6;stroke:#ffabf6;stroke-width:0.1;stroke-linecap:butt;stroke-linejoin:round;stroke-miterlimit:4;stroke-dasharray:none;stroke-dashoffset:0;stroke-opacity:1;fill-opacity:1"
         id="rect2067"
         width="2.6195462"
         height="1.8018744"
         x="5.8484879"
         y="1.4234502" />
      <rect
         style="fill:#acf4ff;stroke:#acf4ff;stroke-width:0.1;stroke-linecap:square;stroke-linejoin:round;stroke-miterlimit:4;stroke-dasharray:none;stroke-dashoffset:0;stroke-opacity:1;fill-opacity:1"
         id="rect2067-6"
         width="2.6195462"
         height="1.8018744"
         x="5.8484874"
         y="-0.37842405" />
      <rect
         style="fill:#ffffff;stroke:#fffff6;stroke-width:0.1;stroke-linecap:square;stroke-linejoin:round;stroke-miterlimit:4;stroke-dasharray:none;stroke-dashoffset:0;stroke-opacity:1;fill-opacity:1"
         id="rect2067-4"
         width="2.6195462"
         height="1.8018744"
         x="5.8484879"
         y="3.2253246" />
      <rect
         style="fill:#ffabf6;stroke:#ffabf6;stroke-width:0.1;stroke-linecap:square;stroke-linejoin:round;stroke-miterlimit:4;stroke-dasharray:none;stroke-dashoffset:0;stroke-opacity:1;fill-opacity:1"
         id="rect2067-0"
         width="2.6195462"
         height="1.8018744"
         x="5.8484879"
         y="5.0271988" />
      <rect
         style="fill:#acf4ff;fill-opacity:1;stroke:#acf4ff;stroke-width:0.1;stroke-linecap:square;stroke-linejoin:round;stroke-miterlimit:4;stroke-dasharray:none;stroke-dashoffset:0;stroke-opacity:1"
         id="rect2067-6-0"
         width="2.6195462"
         height="1.8018744"
         x="5.8484879"
         y="6.829073" />
    </g>
  </g>
</svg>
